<?xml version="1.0" encoding="utf-8"?>
<!-- Generator: Adobe Illustrator 24.3.0, SVG Export Plug-In . SVG Version: 6.00 Build 0)  -->
<svg version="1.1" id="Слой_1" xmlns="http://www.w3.org/2000/svg" xmlns:xlink="http://www.w3.org/1999/xlink" x="0px" y="0px"
	 viewBox="0 0 70 70" style="enable-background:new 0 0 70 70;" xml:space="preserve">
<style type="text/css">
	.st0{fill:#FFFFFF;}
</style>
<g>
	<path class="st0" d="M44.8,70c-1.5-0.7-1.8-2-1.9-3.4c0-4.7,0-9.3,0-14c0-7.7,0-15.4,0-23.1c0-8.6,0-17.2,0-25.8
		c0-1,0.1-1.9,0.7-2.8c0.5-0.9,1.2-1.1,2.2-0.9c5.2,1.3,10.4,2.6,15.6,4c2.2,0.6,4.3,1.1,6.5,1.7c0.6,0.2,1.1,0.5,1.4,1.1
		C69.8,7.7,70,8.7,70,9.6c0,1.7,0,3.4,0,5.1c0,15.2,0,30.3,0,45.5c0,1.1-0.2,2.2-0.8,3.2c-0.3,0.5-0.7,0.8-1.2,0.9
		c-3.9,1-7.8,2-11.8,3c-3.5,0.9-7,1.8-10.5,2.7c-0.1,0-0.1,0.1-0.2,0.1C45.3,70,45.1,70,44.8,70z M51.8,38.5c1.9,0,3.4-1.5,3.4-3.5
		c0-1.8-1.6-3.4-3.4-3.4c-1.9,0-3.5,1.6-3.5,3.4C48.4,37,49.9,38.5,51.8,38.5z"/>
	<path class="st0" d="M0,34.7c0.3-1.1,0.9-1.9,2-2.2c0.3-0.1,0.7-0.1,1.1-0.1c8.2,0,16.4,0,24.5,0c1,0,2.1,0,3.1,0
		c0.1,0,0.2,0,0.4,0c-0.1-0.2-0.2-0.3-0.3-0.3C27,28.4,23.3,24.7,19.7,21c-1.1-1.1-1.1-2.8,0-3.9c1.1-1.1,2.8-1.1,3.9,0
		c4.4,4.3,8.7,8.7,13.1,13.1c1,1,2,2,3,3c1.3,1.3,1.2,3-0.1,4.2c-1.3,1.2-2.4,2.5-3.7,3.7c-4.1,4.2-8.3,8.3-12.4,12.5
		c-1.4,1.4-3.6,1-4.5-0.8c-0.5-1-0.3-2.3,0.5-3.1c1.8-1.8,3.5-3.6,5.3-5.4c1.5-1.5,3-3,4.4-4.5c0.6-0.6,1.1-1.1,1.7-1.7
		c0,0,0.1-0.1,0.2-0.2c-1,0-2,0-3,0c-2.3,0-4.6,0-6.9,0c-4.1,0-8.2,0-12.3,0c-2,0-4.1,0-6.1,0c-1.5,0-2.5-0.8-2.8-2.2
		c0,0,0-0.1-0.1-0.1C0,35.3,0,35,0,34.7z"/>
	<path class="st0" d="M40.5,61.2c0,1.9,0,3.7,0,5.5c-0.1,0-0.2,0-0.4,0c-1.7,0-3.3,0-5,0c-2.1,0-3.8-1.2-4.4-3.1
		c-0.1-0.4-0.2-0.8-0.2-1.2c0-4.1,0-8.1,0-12.2c0-0.3,0.1-0.5,0.3-0.6c1.7-1.7,3.5-3.4,5.2-5.1c0,5.6,0,11.2,0,16.8
		C37.5,61.2,39,61.2,40.5,61.2z"/>
	<path class="st0" d="M40.5,3.9c0,1.8,0,3.6,0,5.5c-1.5,0-2.9,0-4.5,0c0,5.6,0,11.1,0,16.8c-0.4-0.4-0.7-0.7-1-1
		c-1.4-1.4-2.9-2.8-4.3-4.3c-0.1-0.1-0.2-0.4-0.2-0.5c0-4,0-8.1,0-12.1c0-2.3,1.8-4.1,4.1-4.4c0.2,0,0.4,0,0.6,0
		C37,3.9,38.7,3.9,40.5,3.9z"/>
</g>
</svg>
