<?xml version="1.0" encoding="utf-8"?>
<!-- Generator: Adobe Illustrator 24.3.0, SVG Export Plug-In . SVG Version: 6.00 Build 0)  -->
<svg version="1.1" id="Слой_1" xmlns="http://www.w3.org/2000/svg" xmlns:xlink="http://www.w3.org/1999/xlink" x="0px" y="0px"
	 viewBox="0 0 70 70" style="enable-background:new 0 0 70 70;" xml:space="preserve">
<style type="text/css">
	.st0{fill:#FFFFFF;}
</style>
<g>
	<path class="st0" d="M11.4,5.3c1.4,0.2,2.7,0.4,4,0.6c3.2,0.5,6.4,1,9.5,1.5c3,0.5,6.1,0.9,9.1,1.4c3.5,0.5,6.9,1.1,10.4,1.6
		c3.7,0.6,7.3,1.1,11,1.7c1.3,0.2,2.6,0.4,3.9,0.6c2.5,0.3,4.4,2.5,4.4,5c0,16.2,0,32.4,0,48.5c0,2.5-1.9,4-4.4,3.6
		c-3.4-0.6-6.8-1-10.3-1.6c-3.1-0.5-6.2-0.9-9.3-1.4c-3.1-0.5-6.3-0.9-9.4-1.4c-3.4-0.5-6.8-1-10.2-1.6c-2.8-0.4-5.5-0.9-8.3-1.3
		c-0.5-0.1-0.6-0.2-0.6-0.7c0-1.6,0-3.2,0-4.8c0-0.4,0.1-0.6,0.6-0.5c1.1,0.2,2.3,0.4,3.5,0.5c1.8,0.1,3-1.5,2.6-3.3
		c-0.4-1.7-1.7-2.8-3.5-3c-0.9-0.1-1.8-0.2-2.7-0.4c-0.2,0-0.4-0.3-0.4-0.5c0-0.9,0-1.7,0-2.6c0-0.4,0.2-0.5,0.5-0.5
		c0.9,0.1,1.8,0.2,2.7,0.4c1.3,0.3,2.4,0,3.1-1.1c0.7-1,0.5-2.4-0.3-3.5c-0.7-0.9-1.6-1.4-2.8-1.6c-1-0.1-1.9-0.3-2.9-0.4
		c-0.1,0-0.3-0.3-0.4-0.5c0-0.8,0-1.7,0-2.5c0-0.6,0.5-0.4,0.8-0.4c0.9,0.1,1.9,0.3,2.8,0.4c1.9,0.2,3.4-1.4,3-3.3
		c-0.4-1.9-1.6-2.9-4-3.2c-0.7-0.1-1.4-0.2-2.1-0.3c-0.2,0-0.5-0.3-0.5-0.5c-0.1-1,0-1.9,0-3.1c1,0.1,1.9,0.3,2.9,0.4
		c1,0.1,2,0.2,2.8-0.5c0.9-0.8,1.2-2.1,0.7-3.4c-0.7-1.6-2-2.3-3.7-2.5c-0.7-0.1-1.4-0.2-2.1-0.3c-0.4,0-0.6-0.2-0.5-0.6
		c0-0.8,0-1.6,0-2.4c0-0.4,0.1-0.5,0.5-0.4c0.9,0.2,1.8,0.3,2.7,0.4c2.3,0.4,3.9-1.4,3.3-3.6c-0.4-1.5-1.8-2.6-3.4-2.8
		c-0.9-0.1-1.8-0.3-2.7-0.4c-0.1,0-0.3-0.2-0.3-0.3C11.4,8.9,11.4,7.1,11.4,5.3z M35.9,38.2c-0.4,0.3-0.6,0.5-0.8,0.7
		c-4.5,3.8-8.9,7.6-13.4,11.4c-0.9,0.8-0.9,1.4-0.2,2.3c0.1,0.2,0.3,0.3,0.4,0.5c0.9,1,1.5,1.1,2.5,0.2c3.5-2.9,6.9-5.9,10.4-8.8
		c1.2-1,2.4-2.1,3.7-3.1c0.2,0.2,0.3,0.4,0.5,0.5c4.6,5.3,9.2,10.6,13.8,15.9c0.8,0.9,1.4,0.9,2.6-0.1c0.7-0.6,0.8-1.3,0.1-2.2
		c-3.6-4.2-7.2-8.3-10.9-12.5c-1.1-1.3-2.3-2.6-3.4-4c0.8-0.7,1.6-1.3,2.3-2c0.1,0.1,0.2,0.1,0.2,0.2c1.4,1.3,2.6,1.3,4.1,0.1
		c1.1-0.9,2.2-1.8,3.3-2.8c1.8-1.5,3.6-3.1,5.4-4.6c0.7-0.6,0.7-1.4,0-2c-0.2,0.2-0.4,0.4-0.7,0.5c-2.2,1.9-4.4,3.7-6.6,5.6
		c-0.3,0.3-0.7,0.7-1.1,0.2c-0.4-0.5,0-0.8,0.3-1c1.8-1.5,3.6-3.1,5.5-4.6c0.6-0.5,1.2-1,1.8-1.6c-0.4-0.5-0.8-0.9-1.1-1.3
		c-0.3,0.3-0.6,0.5-0.9,0.7c-2.2,1.8-4.3,3.7-6.5,5.5c-0.3,0.3-0.7,0.6-1.1,0.2c-0.4-0.4,0-0.7,0.3-1c2.1-1.8,4.2-3.6,6.3-5.3
		c1.2-1,1.2-1,0-2.1c0,0-0.1,0-0.2-0.1c-0.6,0.5-1.1,1-1.7,1.4c-1.9,1.6-3.8,3.2-5.6,4.8c-0.3,0.3-0.7,0.4-1,0
		c-0.3-0.4,0-0.6,0.3-0.9c0.5-0.4,1-0.9,1.5-1.3c1.8-1.5,3.7-3.1,5.5-4.6c0.5-0.4,0.5-0.6-0.1-0.9c-0.6-0.3-1.1-0.2-1.6,0.3
		c-2.8,2.4-5.5,4.7-8.3,7.1c-1.5,1.3-1.7,2.3-0.9,4.1c0.1,0.2,0.1,0.5,0,0.6c-0.7,0.6-1.4,1.2-2.1,1.8c-0.2-0.1-0.3-0.2-0.4-0.4
		c-1.4-1.7-2.8-3.3-4.3-5c-2.7-3.1-5.4-6.1-8.1-9.1c-0.5-0.5-1.1-0.9-1.8-1.2c-1.1-0.4-2.1,0.5-1.9,1.6c0.2,0.8,0.4,1.6,0.7,2.3
		c2.2,4.6,5.6,8.4,9.3,11.8c0.7,0.7,1.8,1,2.8,1.5C35.2,37.7,35.5,37.9,35.9,38.2z"/>
	<path class="st0" d="M11.5,4.9c2.4-0.2,4.7-0.4,7-0.7c2.5-0.3,5.1-0.5,7.6-0.8c2-0.2,3.9-0.4,5.9-0.6c2.1-0.2,4.3-0.4,6.4-0.6
		c2-0.2,4.1-0.4,6.1-0.6c2.1-0.2,4.2-0.4,6.2-0.6c2.1-0.2,4.2-0.5,6.3-0.6c2.3-0.1,4.2,1.7,4.3,4c0,0.9,0,1.7,0,2.6
		c-3.1-0.7-6.2-0.5-9.3-0.6c-2.5-0.1-5.1-0.2-7.6-0.3C40.6,6,36.8,5.9,33,5.8c-2.5-0.1-5-0.2-7.6-0.3c-3.9-0.1-7.8-0.3-11.7-0.4
		C13,5.1,12.3,5,11.5,4.9z"/>
	<path class="st0" d="M14.7,45.7c-1.5-0.2-3.2-0.5-4.9-0.7c-0.5-0.1-1-0.1-1.5-0.2c-1.2-0.2-1.9-1-1.9-2c0.1-0.8,0.8-1.3,1.6-1.2
		c2.2,0.4,4.4,0.7,6.7,1c0.9,0.1,1.5,0.8,1.7,1.6C16.5,45.1,15.9,45.7,14.7,45.7z"/>
	<path class="st0" d="M14.7,26.1c-1.5-0.2-3.2-0.5-4.8-0.7c-0.7-0.1-1.3-0.2-2-0.3c-0.9-0.2-1.5-1.1-1.4-1.9
		c0.1-0.7,0.8-1.3,1.5-1.2c2.3,0.4,4.5,0.7,6.8,1.1c0.8,0.1,1.5,0.9,1.6,1.7C16.5,25.5,15.9,26.1,14.7,26.1z"/>
	<path class="st0" d="M14.9,36c-1.2-0.2-2.6-0.4-3.9-0.6c-1-0.2-2-0.3-2.9-0.5c-0.8-0.1-1.2-0.7-1.4-1.4c-0.3-1,0.5-1.9,1.6-1.8
		c2.2,0.4,4.5,0.7,6.7,1.1c0.8,0.1,1.5,0.8,1.6,1.6C16.5,35.3,15.9,36,14.9,36z"/>
	<path class="st0" d="M14.6,16.2c-1.5-0.2-3.2-0.5-4.9-0.8c-0.5-0.1-0.9-0.1-1.4-0.2c-0.8-0.1-1.5-0.6-1.7-1.4C6.3,12.8,7,11.9,8,12
		c2.3,0.3,4.6,0.7,6.9,1c0.8,0.1,1.4,0.9,1.5,1.6C16.5,15.6,15.9,16.2,14.6,16.2z"/>
	<path class="st0" d="M8,51.3c1.7,0.3,3.5,0.5,5.2,0.8c0.5,0.1,1,0.2,1.5,0.2c0.8,0.1,1.5,0.7,1.7,1.5c0.2,0.9-0.4,1.7-1.3,1.7
		c-1.5-0.1-2.9-0.4-4.4-0.6c-0.8-0.1-1.5-0.2-2.3-0.4C7.5,54.4,7,54,6.6,53.3C6.2,52.4,6.8,51.2,8,51.3z"/>
</g>
</svg>
